<?xml version="1.0" encoding="UTF-8" standalone="no"?>
<svg
   version="1.2"
   viewBox="0 0 499.4913 499.8"
   width="420"
   height="420"
   id="svg33"
   sodipodi:docname="SNOMED International+tagline_CMYK.svg"
   inkscape:version="1.3.2 (091e20e, 2023-11-25)"
   xml:space="preserve"
   xmlns:inkscape="http://www.inkscape.org/namespaces/inkscape"
   xmlns:sodipodi="http://sodipodi.sourceforge.net/DTD/sodipodi-0.dtd"
   xmlns="http://www.w3.org/2000/svg"
   xmlns:svg="http://www.w3.org/2000/svg"
   xmlns:rdf="http://www.w3.org/1999/02/22-rdf-syntax-ns#"
   xmlns:cc="http://creativecommons.org/ns#"
   xmlns:dc="http://purl.org/dc/elements/1.1/"><defs
     id="defs33" /><sodipodi:namedview
     id="namedview33"
     pagecolor="#ffffff"
     bordercolor="#000000"
     borderopacity="0.25"
     inkscape:showpageshadow="2"
     inkscape:pageopacity="0.0"
     inkscape:pagecheckerboard="0"
     inkscape:deskcolor="#d1d1d1"
     inkscape:zoom="1.2217514"
     inkscape:cx="365.86821"
     inkscape:cy="250.05087"
     inkscape:window-width="1496"
     inkscape:window-height="1226"
     inkscape:window-x="199"
     inkscape:window-y="25"
     inkscape:window-maximized="0"
     inkscape:current-layer="svg33" /><title
     id="title1">SNOMED International+tagline_CMYK</title><style
     id="style1">
		tspan { white-space:pre } 
		.s0 { fill: #fac504 } 
		.s1 { fill: #00b5ef } 
		.t2 { font-size: 43px;fill: #103865;font-weight: 400;font-family: &quot;Aleo-Regular&quot;, &quot;Aleo&quot; } 
		.t3 { font-size: 43px;fill: #103865;font-weight: 700;font-family: &quot;Aleo-Bold&quot;, &quot;Aleo&quot; } 
		.s4 { fill: #fefefe } 
		.s5 { fill: #ffffff } 
	</style><g
     id="master"><g
       id="g33"><g
         id="&lt;Group&gt;" /><g
         id="g32"><path
           id="Shape 1"
           fill-rule="evenodd"
           class="s0"
           d="M 500,0 V 500 H 0 V 0 Z" /><path
           id="&lt;Path&gt;"
           fill-rule="evenodd"
           class="s1"
           d="M 500,26 V 204 H 0 V 26 Z" /><g
           id="SIMPLEX"
           style="font-size:85.68px;line-height:0;stroke-width:3.67389"
           aria-label="SIMPLEX&#10;"><path
             style="font-weight:bold;font-family:Aleo;-inkscape-font-specification:'Aleo Bold';white-space:pre;fill:#103865"
             d="m 57.304077,441.24535 q -3.51288,0 -6.8544,-0.4284 -3.25584,-0.4284 -6.25464,-1.11384 -2.91312,-0.77112 -5.5692,-1.7136 v -8.48232 l 5.48352,-0.59976 q 3.68424,1.7136 6.94008,2.31336 3.34152,0.51408 6.8544,0.51408 3.17016,0 5.39784,-1.02816 2.22768,-1.02816 3.4272,-2.9988 1.2852,-2.05632 1.2852,-4.79808 0,-2.5704 -1.2852,-4.11264 -1.19952,-1.62792 -3.34152,-2.65608 -2.05632,-1.02816 -4.54104,-1.7136 -2.48472,-0.77112 -5.1408,-1.62792 -3.68424,-1.2852 -7.02576,-3.17016 -3.25584,-1.97064 -5.22648,-5.22648 -1.97064,-3.25584 -1.97064,-8.48232 0,-5.05512 2.5704,-9.16776 2.5704,-4.11264 7.11144,-6.51168 4.62672,-2.39904 10.79568,-2.39904 4.36968,0 9.08208,1.2852 4.79808,1.2852 8.48232,3.59856 v 6.8544 l -6.16896,-0.0857 q -2.65608,-0.94248 -5.48352,-1.54224 -2.74176,-0.59976 -5.82624,-0.59976 -4.54104,0 -7.02576,2.142 -2.48472,2.05632 -2.48472,5.48352 0,2.9988 2.142,4.7124 2.22768,1.7136 5.48352,2.82744 3.34152,1.02816 6.68304,2.22768 3.94128,1.37088 7.19712,3.34152 3.25584,1.88496 5.1408,5.05512 1.88496,3.08448 1.88496,8.1396 0,5.74056 -2.65608,10.2816 -2.5704,4.54104 -7.45416,7.11144 -4.88376,2.5704 -11.65248,2.5704 z m 11.90952,-53.63568 8.31096,1.97064 v 7.53984 h -4.45536 q -1.11384,0 -1.7136,-0.59976 -0.59976,-0.68544 -0.8568,-1.88496 z m -22.2768,43.86816 -8.31096,-1.97064 v -7.53984 h 4.45536 q 1.11384,0 1.7136,0.68544 0.68544,0.59976 0.8568,1.79928 z"
             id="path1" /><path
             style="font-weight:bold;font-family:Aleo;-inkscape-font-specification:'Aleo Bold';white-space:pre;fill:#103865"
             d="m 91.319061,440.55991 v -62.03232 h 11.909519 v 62.03232 z m -6.34032,0 v -4.96944 q 0,-1.19952 0.59976,-1.79928 0.68544,-0.59976 1.88496,-0.8568 l 4.88376,-1.02816 1.11384,8.65368 z m 16.193519,0 1.11384,-8.65368 4.88376,1.02816 q 1.19952,0.25704 1.79928,0.8568 0.68544,0.59976 0.68544,1.79928 v 4.96944 z m -7.711199,-62.03232 -1.11384,8.65368 -4.88376,-1.02816 q -1.19952,-0.25704 -1.88496,-0.8568 -0.59976,-0.59976 -0.59976,-1.79928 v -4.96944 z m 16.193519,0 v 4.96944 q 0,1.19952 -0.68544,1.79928 -0.59976,0.59976 -1.79928,0.8568 l -4.88376,1.02816 -1.11384,-8.65368 z"
             id="path2" /><path
             style="font-weight:bold;font-family:Aleo;-inkscape-font-specification:'Aleo Bold';white-space:pre;fill:#103865"
             d="m 120.45027,440.55991 v -62.03232 h 8.9964 q 1.62792,0 2.39904,0.25704 0.77112,0.25704 1.54224,1.62792 l 18.33552,34.35768 q 0.77112,1.37088 1.37088,2.82744 0.59976,1.45656 1.19952,2.9988 0.59976,-1.2852 1.2852,-2.91312 0.68544,-1.62792 1.37088,-3.08448 l 18.07848,-34.18632 q 0.77112,-1.37088 1.54224,-1.62792 0.8568,-0.25704 2.48472,-0.25704 h 8.91072 v 62.03232 h -10.36728 v -39.8412 q 0,-1.19952 0,-2.39904 0.0857,-1.2852 0.17136,-2.5704 l -18.50688,34.78608 q -1.2852,2.5704 -4.11264,2.5704 h -1.62792 q -2.82744,0 -4.19832,-2.5704 l -18.76392,-34.87176 q 0.17136,1.37088 0.25704,2.65608 0.0857,1.2852 0.0857,2.39904 v 39.8412 z m -6.34032,0 v -4.96944 q 0,-1.19952 0.59976,-1.79928 0.68544,-0.59976 1.88496,-0.8568 l 4.88376,-1.02816 1.11384,8.65368 z m 15.07968,0 1.11384,-8.65368 4.96944,1.02816 q 1.11384,0.25704 1.79928,0.8568 0.68544,0.59976 0.68544,1.79928 v 4.96944 z m -6.59736,-62.03232 -1.11384,8.65368 -4.88376,-1.02816 q -1.19952,-0.25704 -1.88496,-0.8568 -0.59976,-0.59976 -0.59976,-1.79928 v -4.96944 z m 48.15216,62.03232 v -4.96944 q 0,-1.19952 0.59976,-1.79928 0.68544,-0.59976 1.88496,-0.8568 l 4.88376,-1.02816 1.11384,8.65368 z m 15.16536,0 1.02816,-8.65368 4.96944,1.02816 q 1.11384,0.25704 1.79928,0.8568 0.68544,0.59976 0.68544,1.79928 v 4.96944 z m 8.48232,-62.03232 v 4.96944 q 0,1.19952 -0.68544,1.79928 -0.68544,0.59976 -1.79928,0.8568 l -4.96944,1.02816 -1.02816,-8.65368 z"
             id="path3" /><path
             style="font-weight:bold;font-family:Aleo;-inkscape-font-specification:'Aleo Bold';white-space:pre;fill:#103865"
             d="m 205.10219,440.55991 v -62.03232 h 20.47752 q 7.45416,0 12.76632,2.31336 5.39784,2.22768 8.31096,6.68304 2.9988,4.36968 2.9988,10.79568 0,6.68304 -2.9988,11.22408 -2.91312,4.54104 -8.39664,6.94008 -5.39784,2.31336 -12.68064,2.31336 h -8.568 v 21.76272 z m 11.90952,-30.8448 h 8.568 q 4.02696,0 6.76872,-1.37088 2.74176,-1.37088 4.11264,-3.8556 1.37088,-2.5704 1.37088,-6.16896 0,-5.05512 -3.08448,-7.88256 -3.08448,-2.82744 -9.16776,-2.82744 h -8.568 z m -18.24984,30.8448 v -4.96944 q 0,-1.19952 0.59976,-1.79928 0.68544,-0.59976 1.88496,-0.8568 l 4.88376,-1.02816 1.11384,8.65368 z m 8.48232,-62.03232 -1.11384,8.65368 -4.88376,-1.02816 q -1.19952,-0.25704 -1.88496,-0.8568 -0.59976,-0.59976 -0.59976,-1.79928 v -4.96944 z m 7.7112,62.03232 1.02816,-8.65368 4.96944,1.02816 q 1.11384,0.25704 1.79928,0.8568 0.68544,0.59976 0.68544,1.79928 v 4.96944 z"
             id="path4" /><path
             style="font-weight:bold;font-family:Aleo;-inkscape-font-specification:'Aleo Bold';white-space:pre;fill:#103865"
             d="m 260.10877,440.55991 v -62.03232 h 11.90952 v 52.43616 h 25.96104 v 9.59616 z m 29.5596,-7.62552 1.2852,-7.02576 q 0.25704,-1.19952 0.8568,-1.79928 0.59976,-0.68544 1.79928,-0.68544 h 4.36968 v 7.53984 z m -35.89992,7.62552 v -4.96944 q 0,-1.19952 0.59976,-1.79928 0.68544,-0.59976 1.88496,-0.8568 l 4.88376,-1.02816 1.11384,8.65368 z m 8.48232,-62.03232 -1.11384,8.65368 -4.88376,-1.02816 q -1.19952,-0.25704 -1.88496,-0.8568 -0.59976,-0.59976 -0.59976,-1.79928 v -4.96944 z m 16.2792,0 v 4.96944 q 0,1.19952 -0.68544,1.79928 -0.68544,0.59976 -1.79928,0.8568 l -4.96944,1.02816 -1.02816,-8.65368 z"
             id="path5" /><path
             style="font-weight:bold;font-family:Aleo;-inkscape-font-specification:'Aleo Bold';white-space:pre;fill:#103865"
             d="m 307.40413,440.55991 v -62.03232 h 39.24144 v 9.25344 h -27.33192 v 17.136 h 20.73456 v 8.91072 h -20.73456 v 17.47872 h 27.33192 v 9.25344 z m 30.8448,-7.2828 1.2852,-7.02576 q 0.34272,-1.19952 0.94248,-1.79928 0.59976,-0.68544 1.7136,-0.68544 h 4.45536 v 7.53984 z m 0,-47.46672 8.39664,1.97064 v 7.53984 h -4.45536 q -1.11384,0 -1.7136,-0.59976 -0.59976,-0.68544 -0.94248,-1.88496 z m -28.7028,-7.2828 -1.02816,8.65368 -4.96944,-1.02816 q -1.11384,-0.25704 -1.79928,-0.8568 -0.68544,-0.59976 -0.68544,-1.79928 v -4.96944 z m -8.48232,62.03232 v -4.96944 q 0,-1.19952 0.59976,-1.79928 0.68544,-0.59976 1.88496,-0.8568 l 4.88376,-1.02816 1.11384,8.65368 z"
             id="path6" /><path
             style="font-weight:bold;font-family:Aleo;-inkscape-font-specification:'Aleo Bold';white-space:pre;fill:#103865"
             d="m 351.87211,440.55991 20.64888,-31.87296 -19.79208,-30.15936 h 11.82384 q 1.19952,0 1.7136,0.34272 0.59976,0.34272 1.02816,1.11384 l 13.96584,22.53384 q 0.25704,-0.4284 0.51408,-0.94248 0.25704,-0.59976 0.51408,-1.11384 l 12.68064,-20.30616 q 0.51408,-0.8568 1.11384,-1.19952 0.59976,-0.4284 1.37088,-0.4284 h 11.30976 l -19.87776,29.64528 20.47752,32.38704 h -11.82384 q -1.19952,0 -1.88496,-0.59976 -0.68544,-0.68544 -1.19952,-1.45656 l -14.22288,-23.47632 q -0.17136,0.4284 -0.4284,0.8568 -0.17136,0.4284 -0.34272,0.8568 l -13.53744,21.76272 q -0.4284,0.77112 -1.11384,1.45656 -0.68544,0.59976 -1.88496,0.59976 z m 9.51048,0 v -5.31216 h 6.76872 v 5.31216 z m 31.35888,0 v -5.31216 h 6.76872 v 5.31216 z m -29.81664,-59.20488 v -2.82744 h 6.426 v 2.82744 z m 29.988,1.19952 v -4.02696 h 6.426 v 4.02696 z m -32.81544,-4.02696 -1.11384,8.65368 -4.88376,-1.02816 q -1.19952,-0.25704 -1.88496,-0.8568 -0.59976,-0.59976 -0.59976,-1.79928 v -4.96944 z m 15.67944,0 v 4.96944 q 0,1.19952 -0.68544,1.79928 -0.68544,0.59976 -1.79928,0.8568 l -4.96944,1.02816 -1.11384,-8.65368 z m 18.67824,0 -1.02816,8.65368 -4.96944,-1.02816 q -1.11384,-0.25704 -1.79928,-0.8568 -0.68544,-0.59976 -0.68544,-1.79928 v -4.96944 z m 15.67944,0 v 4.96944 q 0,1.19952 -0.68544,1.79928 -0.68544,0.59976 -1.79928,0.8568 l -4.96944,1.02816 -1.02816,-8.65368 z m -59.37624,62.03232 v -4.96944 q 0,-1.19952 0.68544,-1.79928 0.68544,-0.59976 1.79928,-0.8568 l 4.96944,-1.02816 1.02816,8.65368 z m 15.67944,0 1.02816,-8.65368 4.96944,1.02816 q 1.11384,0.25704 1.79928,0.8568 0.68544,0.59976 0.68544,1.79928 v 4.96944 z m 35.5572,0 1.11384,-8.65368 4.88376,1.02816 q 1.19952,0.25704 1.79928,0.8568 0.68544,0.59976 0.68544,1.79928 v 4.96944 z m -15.67944,0 v -4.96944 q 0,-1.19952 0.68544,-1.79928 0.68544,-0.59976 1.79928,-0.8568 l 4.96944,-1.02816 1.11384,8.65368 z"
             id="path7" /></g><path
           style="font-size:39.6667px;font-family:Aleo-Regular, Aleo;white-space:pre;fill:#103865"
           d="M 46.034433,356.48825 V 331.2999 h -9.24234 v -3.25267 h 22.253018 v 3.25267 h -9.163008 v 25.18835 z m -2.856002,0 v -1.62633 q 0,-0.357 0.158667,-0.55534 0.158667,-0.238 0.476,-0.27766 l 2.975003,-0.63467 0.436333,3.094 z m 5.513671,0 0.436334,-3.094 2.975002,0.63467 q 0.317334,0.0397 0.476001,0.27766 0.158666,0.19834 0.158666,0.55534 v 1.62633 z m 7.100339,-26.18002 3.25267,0.99167 v 3.60967 h -1.824669 q -0.317333,0 -0.555333,-0.119 -0.198334,-0.15867 -0.277667,-0.51567 z m -15.747679,0 -0.595,3.96667 q -0.03967,0.357 -0.277667,0.51567 -0.238001,0.119 -0.555334,0.119 h -1.824668 v -3.60967 z m 33.002739,26.49735 q -3.133669,0 -5.712004,-1.071 -2.538669,-1.071 -4.403004,-3.01467 -1.824668,-1.904 -2.856002,-4.56167 -1.031334,-2.69733 -1.031334,-5.87067 0,-3.213 1.031334,-5.87067 1.031334,-2.65767 2.856002,-4.60134 1.864335,-1.94366 4.403004,-3.01466 2.578335,-1.07101 5.712004,-1.07101 3.13367,0 5.751672,1.07101 2.618002,1.071 4.44267,3.01466 1.864335,1.94367 2.856002,4.60134 0.991668,2.65767 0.991668,5.87067 0,3.17334 -0.991668,5.87067 -0.991667,2.65767 -2.856002,4.56167 -1.824668,1.94367 -4.44267,3.01467 -2.618002,1.071 -5.751672,1.071 z m 0,-3.37167 q 3.13367,0 5.394671,-1.34866 2.261002,-1.34867 3.451003,-3.84767 1.229668,-2.53867 1.229668,-5.95001 0,-3.41133 -1.229668,-5.91034 -1.190001,-2.53866 -3.451003,-3.927 -2.261001,-1.38833 -5.394671,-1.38833 -3.094002,0 -5.355004,1.38833 -2.261002,1.38834 -3.490669,3.927 -1.229668,2.49901 -1.229668,5.91034 0,3.41134 1.229668,5.91034 1.229667,2.499 3.490669,3.88734 2.261002,1.34866 5.355004,1.34866 z m 30.424369,3.37167 q -3.13367,0 -5.712007,-1.071 -2.538669,-1.071 -4.403004,-3.01467 -1.824668,-1.904 -2.856002,-4.56167 -1.031334,-2.69733 -1.031334,-5.87067 0,-3.213 1.031334,-5.87067 1.031334,-2.65767 2.856002,-4.60134 1.864335,-1.94366 4.403004,-3.01466 2.578337,-1.07101 5.712007,-1.07101 3.13367,0 5.75167,1.07101 2.618,1.071 4.44267,3.01466 1.86433,1.94367 2.856,4.60134 0.99167,2.65767 0.99167,5.87067 0,3.17334 -0.99167,5.87067 -0.99167,2.65767 -2.856,4.56167 -1.82467,1.94367 -4.44267,3.01467 -2.618,1.071 -5.75167,1.071 z m 0,-3.37167 q 3.13367,0 5.39467,-1.34866 2.261,-1.34867 3.451,-3.84767 1.22967,-2.53867 1.22967,-5.95001 0,-3.41133 -1.22967,-5.91034 -1.19,-2.53866 -3.451,-3.927 -2.261,-1.38833 -5.39467,-1.38833 -3.09401,0 -5.355007,1.38833 -2.261002,1.38834 -3.490669,3.927 -1.229668,2.49901 -1.229668,5.91034 0,3.41134 1.229668,5.91034 1.229667,2.499 3.490669,3.88734 2.260997,1.34866 5.355007,1.34866 z m 19.39703,3.05434 v -28.44102 h 3.88733 v 25.18835 h 13.20901 v 3.25267 z m 13.84367,-2.261 0.595,-3.96667 q 0.0793,-0.357 0.27767,-0.476 0.238,-0.15867 0.55533,-0.15867 h 1.82467 v 3.60967 z m -16.69968,2.261 v -1.62633 q 0,-0.357 0.15867,-0.55534 0.15867,-0.238 0.476,-0.27766 l 2.975,-0.63467 0.43634,3.094 z m 4.04601,-28.44102 -0.43634,3.094 -2.975,-0.63467 q -0.31733,-0.0793 -0.476,-0.27766 -0.15867,-0.19834 -0.15867,-0.55534 v -1.62633 z m 5.593,0 v 1.62633 q 0,0.357 -0.15867,0.55534 -0.15866,0.19833 -0.476,0.27766 l -2.975,0.63467 -0.43633,-3.094 z m 20.825,28.75835 q -1.50734,0 -3.09401,-0.27766 -1.547,-0.238 -2.89566,-0.595 -1.30901,-0.357 -2.10234,-0.63467 v -3.53034 l 3.05434,0.75367 q 1.62633,0.595 2.737,0.833 1.15033,0.238 2.618,0.238 1.785,0 3.05434,-0.63467 1.309,-0.63466 2.023,-1.785 0.714,-1.15033 0.714,-2.618 0,-1.38833 -0.595,-2.261 -0.595,-0.87267 -1.58667,-1.38834 -0.99167,-0.55533 -2.22133,-0.91233 -1.19001,-0.39667 -2.45934,-0.833 -1.62633,-0.55533 -3.213,-1.38833 -1.547,-0.83301 -2.53867,-2.22134 -0.99167,-1.428 -0.99167,-3.76834 0,-2.34033 1.071,-4.165 1.11067,-1.82467 3.094,-2.856 1.98334,-1.03134 4.68067,-1.03134 1.70567,0 3.76834,0.43634 2.10234,0.39667 3.96667,1.19 v 2.93533 l -3.01467,-0.595 q -1.26933,-0.357 -2.53867,-0.55533 -1.22966,-0.19833 -2.18167,-0.19833 -2.41966,0 -3.84767,1.22966 -1.428,1.19001 -1.428,3.09401 0,1.666 0.99167,2.57833 1.03134,0.91234 2.57834,1.46767 1.58666,0.55533 3.25267,1.15033 1.86433,0.63467 3.41133,1.50734 1.547,0.87267 2.45934,2.30067 0.952,1.38833 0.952,3.72867 0,2.499 -1.19,4.522 -1.15034,1.98334 -3.33201,3.13367 -2.142,1.15033 -5.19633,1.15033 z m 5.831,-25.50568 3.25267,0.99166 v 3.60967 h -1.82467 q -0.31733,0 -0.55533,-0.119 -0.19833,-0.15866 -0.27767,-0.51566 z m -10.67034,21.45968 -3.25267,-0.99167 v -3.60967 h 1.82467 q 0.31733,0 0.55533,0.15867 0.238,0.119 0.27767,0.476 z"
           id="TOOLS"
           aria-label="TOOLS" /><g
           id="g17"><path
             id="&lt;Compound Path&gt;"
             class="s4"
             d="m 218.2,104.2 c 0,0 4.8,5.7 11.9,5.7 4.5,0 8.2,-2.7 8.2,-7.1 0,-10 -23,-8.4 -23,-23.2 0,-7.2 6.3,-12.8 15.2,-12.8 5.1,0 13.6,2.3 13.6,8.8 v 3.9 h -6.2 v -2.2 c 0,-2.5 -3.6,-4.3 -7.4,-4.3 -5.1,0 -8.3,2.8 -8.3,6.4 0,9.6 22.9,7.5 22.9,23.1 0,7.3 -5.7,13.5 -15.1,13.5 -10.1,0 -15.8,-7.1 -15.8,-7.1 z" /><path
             id="path13"
             class="s4"
             d="m 246.9,109.4 h 2.9 c 0.9,0 1.5,-0.5 1.5,-1.5 V 67.7 h 6.1 l 21.1,30.1 c 1.8,2.5 4,6.4 4,6.4 h 0.2 c 0,0 -0.5,-3.7 -0.5,-6.4 V 72 c 0,-3.1 1.3,-4.3 4.4,-4.3 h 6.7 v 5.7 h -2.9 c -0.9,0 -1.5,0.5 -1.5,1.5 v 40.3 h -6 L 261.6,85.1 c -1.7,-2.6 -3.9,-6.5 -3.9,-6.5 h -0.1 c 0,0 0.4,3.9 0.4,6.5 v 25.8 c 0,3 -1.3,4.3 -4.3,4.3 h -6.8 z" /><path
             id="path14"
             class="s4"
             d="m 318.7,66.8 c 13.7,0 24.4,10.6 24.4,24.3 0,14 -10.7,24.9 -24.4,24.9 -13.8,0 -24.4,-10.9 -24.4,-24.9 0,-13.7 10.6,-24.3 24.4,-24.3 z m 0,42.9 c 9.6,0 17.4,-8.1 17.4,-18.6 0,-10.2 -7.8,-18 -17.4,-18 -9.7,0 -17.4,7.8 -17.4,18 0,10.5 7.7,18.6 17.4,18.6 z" /><path
             id="path15"
             class="s4"
             d="m 343,109.4 h 2.3 c 1,0 1.4,-0.5 1.5,-1.5 L 350,67.7 h 7 l 11.2,25.1 c 1.1,2.6 2.3,6 2.3,6 h 0.2 c 0,0 1.2,-3.4 2.3,-6 l 11.2,-25.1 h 6.9 l 3.3,40.2 c 0,1 0.5,1.5 1.4,1.5 h 2.3 v 5.8 h -6 c -3.1,0 -4.1,-1.3 -4.3,-4.3 l -2,-25.1 c -0.2,-2.9 -0.1,-7 -0.1,-7 h -0.2 c 0,0 -1.3,4.4 -2.5,7 l -9.6,20.9 h -5.6 l -9.7,-20.9 c -1.1,-2.5 -2.5,-7.1 -2.5,-7.1 h -0.2 c 0,0 0.1,4.2 -0.1,7.1 l -1.9,25.1 c -0.2,3 -1.3,4.3 -4.4,4.3 h -6 z" /><path
             id="path16"
             class="s4"
             d="m 402,73.4 h -4.4 v -5.7 h 27.9 c 3.1,0 4.4,1.2 4.4,4.3 v 6 h -6.2 v -3.1 c 0,-1 -0.5,-1.5 -1.5,-1.5 h -13.5 v 14.9 h 16.6 v 5.8 h -16.6 v 13.8 c 0,1 0.5,1.5 1.5,1.5 h 13.9 c 0.9,0 1.4,-0.5 1.4,-1.5 v -3 h 6.2 v 6 c 0,3 -1.2,4.3 -4.3,4.3 h -21.1 c -3.1,0 -4.3,-1.3 -4.3,-4.3 z" /><path
             id="path17"
             class="s4"
             d="m 438.2,73.4 h -4.4 v -5.7 h 19.3 c 14.5,0 24,8.6 24,23.7 0,15 -9.5,23.8 -24,23.8 h -10.6 c -3,0 -4.3,-1.3 -4.3,-4.3 z m 8.2,36 h 6.2 c 10.6,0 17.5,-6.4 17.5,-18.1 0,-11.6 -7,-17.9 -17.5,-17.9 h -7.7 v 34.5 c 0,0.9 0.6,1.5 1.5,1.5 z" /></g><g
           id="g31"
           style="fill:#beefff;fill-opacity:1"><g
             id="g30"
             style="fill:#beefff;fill-opacity:1"><g
               id="Folder 1"
               style="fill:#beefff;fill-opacity:1"><path
                 id="path18"
                 class="s5"
                 d="m 215.3,153.9 h 3.2 v -24.4 h -3.2 v -4 H 226 v 4 h -3.1 v 24.4 h 3.1 v 4 h -10.7 z"
                 style="fill:#beefff;fill-opacity:1" /><path
                 id="path19"
                 class="s5"
                 d="m 230.9,139.5 c 0,-0.7 -0.4,-1 -1,-1 H 228 v -3.8 h 4.3 c 2,0 2.9,0.9 2.9,2.6 v 0.8 c 0,0.8 -0.1,1.4 -0.1,1.4 h 0.1 c 0.9,-2.1 3.7,-5.4 8.7,-5.4 5.5,0 8,3 8,8.9 v 10.1 c 0,0.6 0.3,1 1,1 h 1.9 v 3.8 h -4.4 c -2.1,0 -3,-0.9 -3,-3 V 144 c 0,-3.2 -0.6,-5.8 -4.3,-5.8 -3.6,0 -6.4,2.4 -7.3,5.7 -0.4,0.9 -0.4,2 -0.4,3.1 v 10.9 h -4.5 z"
                 style="fill:#beefff;fill-opacity:1" /><path
                 id="path20"
                 class="s5"
                 d="m 258.3,138.3 h -3 v -3.6 h 3.1 v -6.4 h 4.3 v 6.4 h 5.6 v 3.6 h -5.6 v 10.6 c 0,4.6 3.2,5.2 4.9,5.2 0.7,0 1.1,-0.1 1.1,-0.1 v 4 c 0,0 -0.6,0 -1.6,0 -2.9,0 -8.8,-0.9 -8.8,-8.6 z"
                 style="fill:#beefff;fill-opacity:1" /><path
                 id="path21"
                 class="s5"
                 d="m 281.4,134.1 c 6.5,0 10,4.9 10,10.9 0,0.6 -0.1,1.8 -0.1,1.8 h -16.9 c 0.3,5 3.8,7.8 8,7.8 3.9,0 6.7,-2.7 6.7,-2.7 l 2,3.1 c 0,0 -3.5,3.4 -9,3.4 -7.3,0 -12.3,-5.3 -12.3,-12.1 0,-7.4 5,-12.2 11.6,-12.2 z m 5.4,9.5 c -0.1,-3.9 -2.5,-5.9 -5.4,-5.9 -3.4,0 -6.1,2 -6.8,5.9 z"
                 style="fill:#beefff;fill-opacity:1" /><path
                 id="path22"
                 class="s5"
                 d="m 296.3,139.5 c 0,-0.7 -0.4,-1 -1,-1 h -1.9 v -3.8 h 4.2 c 2,0 3,0.8 3,2.7 v 1.5 c 0,0.9 -0.1,1.6 -0.1,1.6 h 0.1 c 1.1,-3.4 3.7,-6.1 7.3,-6.1 0.6,0 1.2,0.1 1.2,0.1 v 4.4 c 0,0 -0.6,-0.1 -1.3,-0.1 -2.9,0 -5.5,2 -6.5,5.4 -0.5,1.3 -0.6,2.8 -0.6,4.2 v 9.5 h -4.4 z"
                 style="fill:#beefff;fill-opacity:1" /><path
                 id="path23"
                 class="s5"
                 d="m 314.2,139.5 c 0,-0.7 -0.4,-1 -1,-1 h -1.9 v -3.8 h 4.3 c 2,0 2.9,0.9 2.9,2.6 v 0.8 c 0,0.8 -0.1,1.4 -0.1,1.4 h 0.1 c 0.9,-2.1 3.7,-5.4 8.7,-5.4 5.5,0 8,3 8,8.9 v 10.1 c 0,0.6 0.3,1 1,1 h 1.9 v 3.8 h -4.4 c -2.1,0 -3,-0.9 -3,-3 V 144 c 0,-3.2 -0.6,-5.8 -4.3,-5.8 -3.6,0 -6.4,2.4 -7.3,5.7 -0.4,0.9 -0.4,2 -0.4,3.1 v 10.9 h -4.5 z"
                 style="fill:#beefff;fill-opacity:1" /><path
                 id="path24"
                 class="s5"
                 d="m 353.9,143.4 h 1 v -0.2 c 0,-4.1 -1.5,-5.5 -5.1,-5.5 -1.1,0 -3.8,0.2 -3.8,1.8 v 1.3 h -4.1 v -2.3 c 0,-3.8 5.7,-4.4 8,-4.4 7.5,0 9.5,4 9.5,9.1 v 9.9 c 0,0.6 0.4,1 1,1 h 1.9 v 3.8 h -4.2 c -2.1,0 -2.9,-1 -2.9,-2.7 0,-0.8 0.1,-1.4 0.1,-1.4 h -0.1 c 0,0 -1.8,4.6 -7.4,4.6 -3.9,0 -7.8,-2.4 -7.8,-7 0,-7.5 10,-8 13.9,-8 z m -5.1,11.4 c 3.8,0 6.2,-3.9 6.2,-7.3 v -0.8 h -1.2 c -3.3,0 -9.3,0.2 -9.3,4.4 0,1.9 1.4,3.7 4.3,3.7 z"
                 style="fill:#beefff;fill-opacity:1" /><path
                 id="path25"
                 class="s5"
                 d="m 365.5,138.3 h -3 v -3.6 h 3.1 v -6.4 h 4.3 v 6.4 h 5.6 v 3.6 h -5.6 v 10.6 c 0,4.6 3.2,5.2 4.9,5.2 0.7,0 1.1,-0.1 1.1,-0.1 v 4 c 0,0 -0.6,0 -1.6,0 -2.9,0 -8.8,-0.9 -8.8,-8.6 z"
                 style="fill:#beefff;fill-opacity:1" /><path
                 id="path26"
                 class="s5"
                 d="m 380.6,139.5 c 0,-0.7 -0.4,-1 -1,-1 h -1.9 v -3.8 h 4.4 c 2,0 2.9,0.9 2.9,2.9 v 15.5 c 0,0.6 0.4,1 1,1 h 1.9 v 3.8 h -4.4 c -2,0 -2.9,-0.9 -2.9,-3 z m 0.1,-13.9 h 4 v 4.6 h -4 z"
                 style="fill:#beefff;fill-opacity:1" /><path
                 id="path27"
                 class="s5"
                 d="m 401.7,134.1 c 6.9,0 12.5,5.1 12.5,12.1 0,7.1 -5.6,12.2 -12.5,12.2 -6.9,0 -12.5,-5.1 -12.5,-12.2 0,-7 5.6,-12.1 12.5,-12.1 z m 0,20.5 c 4.4,0 8,-3.5 8,-8.4 0,-4.8 -3.6,-8.2 -8,-8.2 -4.4,0 -7.9,3.4 -7.9,8.2 0,4.9 3.5,8.4 7.9,8.4 z"
                 style="fill:#beefff;fill-opacity:1" /><path
                 id="path28"
                 class="s5"
                 d="m 418.4,139.5 c 0,-0.7 -0.3,-1 -1,-1 h -1.8 v -3.8 h 4.2 c 2,0 2.9,0.9 2.9,2.6 v 0.8 c 0,0.8 -0.1,1.4 -0.1,1.4 h 0.1 c 1,-2.1 3.7,-5.4 8.7,-5.4 5.5,0 8,3 8,8.9 v 10.1 c 0,0.6 0.4,1 1,1 h 1.9 v 3.8 h -4.4 c -2.1,0 -2.9,-0.9 -2.9,-3 V 144 c 0,-3.2 -0.7,-5.8 -4.4,-5.8 -3.6,0 -6.4,2.4 -7.3,5.7 -0.3,0.9 -0.4,2 -0.4,3.1 v 10.9 h -4.5 z"
                 style="fill:#beefff;fill-opacity:1" /><path
                 id="path29"
                 class="s5"
                 d="m 458.2,143.4 h 1 v -0.2 c 0,-4.1 -1.5,-5.5 -5.2,-5.5 -1.1,0 -3.8,0.2 -3.8,1.8 v 1.3 h -4.1 v -2.3 c 0,-3.8 5.7,-4.4 8,-4.4 7.5,0 9.5,4 9.5,9.1 v 9.9 c 0,0.6 0.4,1 1,1 h 1.9 v 3.8 h -4.2 c -2,0 -2.9,-1 -2.9,-2.7 0,-0.8 0.1,-1.4 0.1,-1.4 h -0.1 c 0,0 -1.8,4.6 -7.3,4.6 -4,0 -7.9,-2.4 -7.9,-7 0,-7.5 10.1,-8 14,-8 z m -5.2,11.4 c 3.8,0 6.2,-3.9 6.2,-7.3 v -0.8 h -1.1 c -3.4,0 -9.4,0.2 -9.4,4.4 0,1.9 1.4,3.7 4.3,3.7 z"
                 style="fill:#beefff;fill-opacity:1" /><path
                 id="path30"
                 class="s5"
                 d="m 469.7,130.3 c 0,-0.6 -0.4,-1 -1,-1 h -1.9 v -3.8 h 4.4 c 2.1,0 2.9,0.9 2.9,3 v 24.6 c 0,0.6 0.4,1 1,1 h 1.9 v 3.8 h -4.4 c -2,0 -2.9,-0.9 -2.9,-3 z"
                 style="fill:#beefff;fill-opacity:1" /></g></g></g></g></g></g><metadata
     id="metadata1"><rdf:RDF><cc:Work
         rdf:about=""><dc:title>SNOMED International+tagline_CMYK</dc:title></cc:Work></rdf:RDF></metadata></svg>
